<svg width="23" height="26" viewBox="0 0 23 26" fill="none" xmlns="http://www.w3.org/2000/svg">
<g filter="url(#filter0_ii_33_435)">
<path d="M0.46145 0.410707C0.171578 0.722051 0.000243715 1.20524 0.000243715 1.83096V24.1871C0.000243715 24.8138 0.171578 25.296 0.46145 25.6073L0.535162 25.6801L12.8761 13.1566V13.009V12.8614L0.535162 0.336914L0.46145 0.410707Z" fill="url(#paint0_linear_33_435)"/>
<path d="M16.9888 17.3314L12.8759 13.1556V13.008V12.8604L16.9898 8.68555L17.0825 8.73912L21.9565 11.5493C23.3481 12.3519 23.3481 13.665 21.9565 14.4687L17.0825 17.2788L16.9888 17.3314Z" fill="url(#paint1_linear_33_435)"/>
<g filter="url(#filter1_i_33_435)">
<path d="M17.0826 17.2786L12.875 13.0088L0.461305 25.6071C0.919521 26.1004 1.67757 26.161 2.53125 25.6698L17.0826 17.2786Z" fill="url(#paint2_linear_33_435)"/>
</g>
<path d="M17.0826 8.73863L2.53125 0.348513C1.67757 -0.143774 0.919521 -0.0821118 0.461305 0.411186L12.876 13.0095L17.0826 8.73863Z" fill="url(#paint3_linear_33_435)"/>
</g>
<defs>
<filter id="filter0_ii_33_435" x="0.000244141" y="0.00878906" width="23" height="26.0005" filterUnits="userSpaceOnUse" color-interpolation-filters="sRGB">
<feFlood flood-opacity="0" result="BackgroundImageFix"/>
<feBlend mode="normal" in="SourceGraphic" in2="BackgroundImageFix" result="shape"/>
<feColorMatrix in="SourceAlpha" type="matrix" values="0 0 0 0 0 0 0 0 0 0 0 0 0 0 0 0 0 0 127 0" result="hardAlpha"/>
<feOffset dy="-0.15"/>
<feComposite in2="hardAlpha" operator="arithmetic" k2="-1" k3="1"/>
<feColorMatrix type="matrix" values="0 0 0 0 0 0 0 0 0 0 0 0 0 0 0 0 0 0 0.12 0"/>
<feBlend mode="normal" in2="shape" result="effect1_innerShadow_33_435"/>
<feColorMatrix in="SourceAlpha" type="matrix" values="0 0 0 0 0 0 0 0 0 0 0 0 0 0 0 0 0 0 127 0" result="hardAlpha"/>
<feOffset dy="0.15"/>
<feComposite in2="hardAlpha" operator="arithmetic" k2="-1" k3="1"/>
<feColorMatrix type="matrix" values="0 0 0 0 1 0 0 0 0 1 0 0 0 0 1 0 0 0 0.25 0"/>
<feBlend mode="normal" in2="effect1_innerShadow_33_435" result="effect2_innerShadow_33_435"/>
</filter>
<filter id="filter1_i_33_435" x="0.461304" y="13.0088" width="16.6213" height="13.0005" filterUnits="userSpaceOnUse" color-interpolation-filters="sRGB">
<feFlood flood-opacity="0" result="BackgroundImageFix"/>
<feBlend mode="normal" in="SourceGraphic" in2="BackgroundImageFix" result="shape"/>
<feColorMatrix in="SourceAlpha" type="matrix" values="0 0 0 0 0 0 0 0 0 0 0 0 0 0 0 0 0 0 127 0" result="hardAlpha"/>
<feOffset dy="-0.15"/>
<feComposite in2="hardAlpha" operator="arithmetic" k2="-1" k3="1"/>
<feColorMatrix type="matrix" values="0 0 0 0 0 0 0 0 0 0 0 0 0 0 0 0 0 0 0.08 0"/>
<feBlend mode="normal" in2="shape" result="effect1_innerShadow_33_435"/>
</filter>
<linearGradient id="paint0_linear_33_435" x1="11.7822" y1="1.59442" x2="-5.18019" y2="18.3095" gradientUnits="userSpaceOnUse">
<stop stop-color="#00A0FF"/>
<stop offset="0.0066" stop-color="#00A1FF"/>
<stop offset="0.2601" stop-color="#00BEFF"/>
<stop offset="0.5122" stop-color="#00D2FF"/>
<stop offset="0.7604" stop-color="#00DFFF"/>
<stop offset="1" stop-color="#00E3FF"/>
</linearGradient>
<linearGradient id="paint1_linear_33_435" x1="23.768" y1="13.008" x2="-0.334123" y2="13.008" gradientUnits="userSpaceOnUse">
<stop stop-color="#FFE000"/>
<stop offset="0.4087" stop-color="#FFBD00"/>
<stop offset="0.7754" stop-color="#FFA500"/>
<stop offset="1" stop-color="#FF9C00"/>
</linearGradient>
<linearGradient id="paint2_linear_33_435" x1="14.7976" y1="15.3276" x2="-8.20551" y2="37.9954" gradientUnits="userSpaceOnUse">
<stop stop-color="#FF3A44"/>
<stop offset="1" stop-color="#C31162"/>
</linearGradient>
<linearGradient id="paint3_linear_33_435" x1="-2.66513" y1="-7.03094" x2="7.6064" y2="3.09086" gradientUnits="userSpaceOnUse">
<stop stop-color="#32A071"/>
<stop offset="0.0685" stop-color="#2DA771"/>
<stop offset="0.4762" stop-color="#15CF74"/>
<stop offset="0.8009" stop-color="#06E775"/>
<stop offset="1" stop-color="#00F076"/>
</linearGradient>
</defs>
</svg>
